# MagicaVoxel @ Ephtracy

# group
o 

# material
mtllib ActivityItem.mtl
usemtl palette

# normals
vn -1 0 0
vn 1 0 0
vn 0 0 1
vn 0 0 -1
vn 0 -1 0
vn 0 1 0

# texcoords
vt 0.982422 0.5
vt 0.986328 0.5
vt 0.990234 0.5

# verts
v -0.4 0 0.2
v -0.4 0 -0.2
v -0.4 0.1 0.2
v -0.4 0.1 -0.2
v -0.3 0 0.3
v -0.3 0 0.2
v -0.3 0 -0.2
v -0.3 0 -0.3
v -0.3 0.1 0.3
v -0.3 0.1 0.2
v -0.3 0.1 -0.2
v -0.3 0.1 -0.3
v -0.3 0.6 0.2
v -0.3 0.6 -0.2
v -0.3 0.7 0.2
v -0.3 0.7 -0.2
v -0.2 0 0.4
v -0.2 0 0.3
v -0.2 0 -0.3
v -0.2 0 -0.4
v -0.2 0.1 0.4
v -0.2 0.1 0.3
v -0.2 0.1 0.2
v -0.2 0.1 0.1
v -0.2 0.1 -0.1
v -0.2 0.1 -0.2
v -0.2 0.1 -0.3
v -0.2 0.1 -0.4
v -0.2 0.6 0.3
v -0.2 0.6 0.2
v -0.2 0.6 0.1
v -0.2 0.6 -0.1
v -0.2 0.6 -0.2
v -0.2 0.6 -0.3
v -0.2 0.7 0.3
v -0.2 0.7 0.2
v -0.2 0.7 -0.2
v -0.2 0.7 -0.3
v 0.1 0.1 0.2
v 0.1 0.1 0.1
v 0.1 0.1 -0.1
v 0.1 0.1 -0.2
v 0.1 0.6 0.2
v 0.1 0.6 0.1
v 0.1 0.6 -0.1
v 0.1 0.6 -0.2
v -0.1 0.1 0.2
v -0.1 0.1 0.1
v -0.1 0.1 -0.1
v -0.1 0.1 -0.2
v -0.1 0.6 0.2
v -0.1 0.6 0.1
v -0.1 0.6 -0.1
v -0.1 0.6 -0.2
v 0.2 0 0.4
v 0.2 0 0.3
v 0.2 0 -0.3
v 0.2 0 -0.4
v 0.2 0.1 0.4
v 0.2 0.1 0.3
v 0.2 0.1 0.2
v 0.2 0.1 0.1
v 0.2 0.1 -0.1
v 0.2 0.1 -0.2
v 0.2 0.1 -0.3
v 0.2 0.1 -0.4
v 0.2 0.6 0.3
v 0.2 0.6 0.2
v 0.2 0.6 0.1
v 0.2 0.6 -0.1
v 0.2 0.6 -0.2
v 0.2 0.6 -0.3
v 0.2 0.7 0.3
v 0.2 0.7 0.2
v 0.2 0.7 -0.2
v 0.2 0.7 -0.3
v 0.3 0 0.3
v 0.3 0 0.2
v 0.3 0 -0.2
v 0.3 0 -0.3
v 0.3 0.1 0.3
v 0.3 0.1 0.2
v 0.3 0.1 -0.2
v 0.3 0.1 -0.3
v 0.3 0.6 0.2
v 0.3 0.6 -0.2
v 0.3 0.7 0.2
v 0.3 0.7 -0.2
v 0.4 0 0.2
v 0.4 0 -0.2
v 0.4 0.1 0.2
v 0.4 0.1 -0.2
v -0.2 0 0.4
v -0.2 0.1 0.4
v 0.2 0 0.4
v 0.2 0.1 0.4
v -0.3 0 0.3
v -0.3 0.1 0.3
v -0.2 0 0.3
v -0.2 0.1 0.3
v -0.2 0.6 0.3
v -0.2 0.7 0.3
v 0.2 0 0.3
v 0.2 0.1 0.3
v 0.2 0.6 0.3
v 0.2 0.7 0.3
v 0.3 0 0.3
v 0.3 0.1 0.3
v -0.4 0 0.2
v -0.4 0.1 0.2
v -0.3 0 0.2
v -0.3 0.1 0.2
v -0.3 0.6 0.2
v -0.3 0.7 0.2
v -0.2 0.1 0.2
v -0.2 0.6 0.2
v -0.2 0.7 0.2
v -0.1 0.1 0.2
v -0.1 0.6 0.2
v 0.1 0.1 0.2
v 0.1 0.6 0.2
v 0.2 0.1 0.2
v 0.2 0.6 0.2
v 0.2 0.7 0.2
v 0.3 0 0.2
v 0.3 0.1 0.2
v 0.3 0.6 0.2
v 0.3 0.7 0.2
v 0.4 0 0.2
v 0.4 0.1 0.2
v -0.2 0.1 -0.1
v -0.2 0.6 -0.1
v -0.1 0.1 -0.1
v -0.1 0.6 -0.1
v 0.1 0.1 -0.1
v 0.1 0.6 -0.1
v 0.2 0.1 -0.1
v 0.2 0.6 -0.1
v -0.2 0.1 0.1
v -0.2 0.6 0.1
v -0.1 0.1 0.1
v -0.1 0.6 0.1
v 0.1 0.1 0.1
v 0.1 0.6 0.1
v 0.2 0.1 0.1
v 0.2 0.6 0.1
v -0.4 0 -0.2
v -0.4 0.1 -0.2
v -0.3 0 -0.2
v -0.3 0.1 -0.2
v -0.3 0.6 -0.2
v -0.3 0.7 -0.2
v -0.2 0.1 -0.2
v -0.2 0.6 -0.2
v -0.2 0.7 -0.2
v -0.1 0.1 -0.2
v -0.1 0.6 -0.2
v 0.1 0.1 -0.2
v 0.1 0.6 -0.2
v 0.2 0.1 -0.2
v 0.2 0.6 -0.2
v 0.2 0.7 -0.2
v 0.3 0 -0.2
v 0.3 0.1 -0.2
v 0.3 0.6 -0.2
v 0.3 0.7 -0.2
v 0.4 0 -0.2
v 0.4 0.1 -0.2
v -0.3 0 -0.3
v -0.3 0.1 -0.3
v -0.2 0 -0.3
v -0.2 0.1 -0.3
v -0.2 0.6 -0.3
v -0.2 0.7 -0.3
v 0.2 0 -0.3
v 0.2 0.1 -0.3
v 0.2 0.6 -0.3
v 0.2 0.7 -0.3
v 0.3 0 -0.3
v 0.3 0.1 -0.3
v -0.2 0 -0.4
v -0.2 0.1 -0.4
v 0.2 0 -0.4
v 0.2 0.1 -0.4
v -0.2 0 0.4
v 0.2 0 0.4
v -0.3 0 0.3
v -0.2 0 0.3
v 0.2 0 0.3
v 0.3 0 0.3
v -0.4 0 0.2
v -0.3 0 0.2
v 0.3 0 0.2
v 0.4 0 0.2
v -0.4 0 -0.2
v -0.3 0 -0.2
v 0.3 0 -0.2
v 0.4 0 -0.2
v -0.3 0 -0.3
v -0.2 0 -0.3
v 0.2 0 -0.3
v 0.3 0 -0.3
v -0.2 0 -0.4
v 0.2 0 -0.4
v -0.2 0.6 0.3
v 0.2 0.6 0.3
v -0.3 0.6 0.2
v -0.2 0.6 0.2
v -0.1 0.6 0.2
v 0.1 0.6 0.2
v 0.2 0.6 0.2
v 0.3 0.6 0.2
v -0.2 0.6 0.1
v -0.1 0.6 0.1
v 0.1 0.6 0.1
v 0.2 0.6 0.1
v -0.2 0.6 -0.1
v -0.1 0.6 -0.1
v 0.1 0.6 -0.1
v 0.2 0.6 -0.1
v -0.3 0.6 -0.2
v -0.2 0.6 -0.2
v -0.1 0.6 -0.2
v 0.1 0.6 -0.2
v 0.2 0.6 -0.2
v 0.3 0.6 -0.2
v -0.2 0.6 -0.3
v 0.2 0.6 -0.3
v -0.2 0.1 0.4
v 0.2 0.1 0.4
v -0.3 0.1 0.3
v -0.2 0.1 0.3
v 0.2 0.1 0.3
v 0.3 0.1 0.3
v -0.4 0.1 0.2
v -0.3 0.1 0.2
v -0.2 0.1 0.2
v -0.1 0.1 0.2
v 0.1 0.1 0.2
v 0.2 0.1 0.2
v 0.3 0.1 0.2
v 0.4 0.1 0.2
v -0.2 0.1 0.1
v -0.1 0.1 0.1
v 0.1 0.1 0.1
v 0.2 0.1 0.1
v -0.2 0.1 -0.1
v -0.1 0.1 -0.1
v 0.1 0.1 -0.1
v 0.2 0.1 -0.1
v -0.4 0.1 -0.2
v -0.3 0.1 -0.2
v -0.2 0.1 -0.2
v -0.1 0.1 -0.2
v 0.1 0.1 -0.2
v 0.2 0.1 -0.2
v 0.3 0.1 -0.2
v 0.4 0.1 -0.2
v -0.3 0.1 -0.3
v -0.2 0.1 -0.3
v 0.2 0.1 -0.3
v 0.3 0.1 -0.3
v -0.2 0.1 -0.4
v 0.2 0.1 -0.4
v -0.2 0.7 0.3
v 0.2 0.7 0.3
v -0.3 0.7 0.2
v -0.2 0.7 0.2
v 0.2 0.7 0.2
v 0.3 0.7 0.2
v -0.3 0.7 -0.2
v -0.2 0.7 -0.2
v 0.2 0.7 -0.2
v 0.3 0.7 -0.2
v -0.2 0.7 -0.3
v 0.2 0.7 -0.3

# faces
f 3/3/1 2/3/1 1/3/1
f 4/3/1 2/3/1 3/3/1
f 9/3/1 6/3/1 5/3/1
f 10/3/1 6/3/1 9/3/1
f 11/3/1 8/3/1 7/3/1
f 12/3/1 8/3/1 11/3/1
f 15/1/1 14/1/1 13/1/1
f 16/1/1 14/1/1 15/1/1
f 21/3/1 18/3/1 17/3/1
f 22/3/1 18/3/1 21/3/1
f 27/3/1 20/3/1 19/3/1
f 28/3/1 20/3/1 27/3/1
f 30/2/1 24/2/1 23/2/1
f 31/2/1 24/2/1 30/2/1
f 32/2/1 26/2/1 25/2/1
f 33/2/1 26/2/1 32/2/1
f 35/1/1 30/1/1 29/1/1
f 36/1/1 30/1/1 35/1/1
f 37/1/1 34/1/1 33/1/1
f 38/1/1 34/1/1 37/1/1
f 43/2/1 40/2/1 39/2/1
f 44/2/1 40/2/1 43/2/1
f 45/2/1 42/2/1 41/2/1
f 46/2/1 42/2/1 45/2/1
f 47/2/2 48/2/2 51/2/2
f 51/2/2 48/2/2 52/2/2
f 49/2/2 50/2/2 53/2/2
f 53/2/2 50/2/2 54/2/2
f 55/3/2 56/3/2 59/3/2
f 59/3/2 56/3/2 60/3/2
f 57/3/2 58/3/2 65/3/2
f 65/3/2 58/3/2 66/3/2
f 61/2/2 62/2/2 68/2/2
f 68/2/2 62/2/2 69/2/2
f 63/2/2 64/2/2 70/2/2
f 70/2/2 64/2/2 71/2/2
f 67/1/2 68/1/2 73/1/2
f 73/1/2 68/1/2 74/1/2
f 71/1/2 72/1/2 75/1/2
f 75/1/2 72/1/2 76/1/2
f 77/3/2 78/3/2 81/3/2
f 81/3/2 78/3/2 82/3/2
f 79/3/2 80/3/2 83/3/2
f 83/3/2 80/3/2 84/3/2
f 85/1/2 86/1/2 87/1/2
f 87/1/2 86/1/2 88/1/2
f 89/3/2 90/3/2 91/3/2
f 91/3/2 90/3/2 92/3/2
f 95/3/3 94/3/3 93/3/3
f 96/3/3 94/3/3 95/3/3
f 99/3/3 98/3/3 97/3/3
f 100/3/3 98/3/3 99/3/3
f 105/1/3 102/1/3 101/1/3
f 106/1/3 102/1/3 105/1/3
f 107/3/3 104/3/3 103/3/3
f 108/3/3 104/3/3 107/3/3
f 111/3/3 110/3/3 109/3/3
f 112/3/3 110/3/3 111/3/3
f 116/1/3 114/1/3 113/1/3
f 117/1/3 114/1/3 116/1/3
f 118/2/3 116/2/3 115/2/3
f 119/2/3 116/2/3 118/2/3
f 122/2/3 121/2/3 120/2/3
f 123/2/3 121/2/3 122/2/3
f 127/1/3 124/1/3 123/1/3
f 128/1/3 124/1/3 127/1/3
f 129/3/3 126/3/3 125/3/3
f 130/3/3 126/3/3 129/3/3
f 133/2/3 132/2/3 131/2/3
f 134/2/3 132/2/3 133/2/3
f 137/2/3 136/2/3 135/2/3
f 138/2/3 136/2/3 137/2/3
f 139/2/4 140/2/4 141/2/4
f 141/2/4 140/2/4 142/2/4
f 143/2/4 144/2/4 145/2/4
f 145/2/4 144/2/4 146/2/4
f 147/3/4 148/3/4 149/3/4
f 149/3/4 148/3/4 150/3/4
f 151/1/4 152/1/4 154/1/4
f 154/1/4 152/1/4 155/1/4
f 153/2/4 154/2/4 156/2/4
f 156/2/4 154/2/4 157/2/4
f 158/2/4 159/2/4 160/2/4
f 160/2/4 159/2/4 161/2/4
f 161/1/4 162/1/4 165/1/4
f 165/1/4 162/1/4 166/1/4
f 163/3/4 164/3/4 167/3/4
f 167/3/4 164/3/4 168/3/4
f 169/3/4 170/3/4 171/3/4
f 171/3/4 170/3/4 172/3/4
f 173/1/4 174/1/4 177/1/4
f 177/1/4 174/1/4 178/1/4
f 175/3/4 176/3/4 179/3/4
f 179/3/4 176/3/4 180/3/4
f 181/3/4 182/3/4 183/3/4
f 183/3/4 182/3/4 184/3/4
f 188/3/5 186/3/5 185/3/5
f 189/3/5 186/3/5 188/3/5
f 192/3/5 188/3/5 187/3/5
f 192/3/5 190/3/5 189/3/5
f 192/3/5 189/3/5 188/3/5
f 193/3/5 190/3/5 192/3/5
f 195/3/5 192/3/5 191/3/5
f 195/3/5 194/3/5 193/3/5
f 195/3/5 193/3/5 192/3/5
f 196/3/5 194/3/5 195/3/5
f 197/3/5 194/3/5 196/3/5
f 198/3/5 194/3/5 197/3/5
f 199/3/5 197/3/5 196/3/5
f 200/3/5 197/3/5 199/3/5
f 201/3/5 197/3/5 200/3/5
f 202/3/5 197/3/5 201/3/5
f 203/3/5 201/3/5 200/3/5
f 204/3/5 201/3/5 203/3/5
f 208/1/5 206/1/5 205/1/5
f 209/1/5 206/1/5 208/1/5
f 210/1/5 206/1/5 209/1/5
f 211/1/5 206/1/5 210/1/5
f 213/1/5 208/1/5 207/1/5
f 214/1/5 210/1/5 209/1/5
f 215/1/5 210/1/5 214/1/5
f 216/1/5 212/1/5 211/1/5
f 217/1/5 215/1/5 214/1/5
f 217/1/5 216/1/5 215/1/5
f 217/1/5 213/1/5 207/1/5
f 217/1/5 214/1/5 213/1/5
f 218/1/5 216/1/5 217/1/5
f 219/1/5 216/1/5 218/1/5
f 220/1/5 212/1/5 216/1/5
f 220/1/5 216/1/5 219/1/5
f 221/1/5 217/1/5 207/1/5
f 222/1/5 217/1/5 221/1/5
f 223/1/5 219/1/5 218/1/5
f 224/1/5 219/1/5 223/1/5
f 225/1/5 212/1/5 220/1/5
f 226/1/5 212/1/5 225/1/5
f 227/1/5 224/1/5 223/1/5
f 227/1/5 225/1/5 224/1/5
f 227/1/5 223/1/5 222/1/5
f 228/1/5 225/1/5 227/1/5
f 229/3/6 230/3/6 232/3/6
f 232/3/6 230/3/6 233/3/6
f 231/3/6 232/3/6 236/3/6
f 233/3/6 234/3/6 236/3/6
f 232/3/6 233/3/6 236/3/6
f 236/3/6 234/3/6 237/3/6
f 237/3/6 234/3/6 238/3/6
f 238/3/6 234/3/6 239/3/6
f 239/3/6 234/3/6 240/3/6
f 240/3/6 234/3/6 241/3/6
f 235/3/6 236/3/6 243/3/6
f 236/3/6 237/3/6 243/3/6
f 238/3/6 239/3/6 244/3/6
f 244/3/6 239/3/6 245/3/6
f 241/3/6 242/3/6 246/3/6
f 240/3/6 241/3/6 246/3/6
f 244/3/6 245/3/6 247/3/6
f 245/3/6 246/3/6 247/3/6
f 243/3/6 244/3/6 247/3/6
f 235/3/6 243/3/6 247/3/6
f 247/3/6 246/3/6 248/3/6
f 248/3/6 246/3/6 249/3/6
f 246/3/6 242/3/6 250/3/6
f 249/3/6 246/3/6 250/3/6
f 235/3/6 247/3/6 251/3/6
f 251/3/6 247/3/6 252/3/6
f 252/3/6 247/3/6 253/3/6
f 248/3/6 249/3/6 254/3/6
f 254/3/6 249/3/6 255/3/6
f 250/3/6 242/3/6 256/3/6
f 256/3/6 242/3/6 257/3/6
f 257/3/6 242/3/6 258/3/6
f 252/3/6 253/3/6 259/3/6
f 254/3/6 255/3/6 259/3/6
f 256/3/6 257/3/6 259/3/6
f 255/3/6 256/3/6 259/3/6
f 253/3/6 254/3/6 259/3/6
f 259/3/6 257/3/6 260/3/6
f 260/3/6 257/3/6 261/3/6
f 261/3/6 257/3/6 262/3/6
f 260/3/6 261/3/6 263/3/6
f 263/3/6 261/3/6 264/3/6
f 265/1/6 266/1/6 268/1/6
f 268/1/6 266/1/6 269/1/6
f 267/1/6 268/1/6 271/1/6
f 269/1/6 270/1/6 271/1/6
f 268/1/6 269/1/6 271/1/6
f 271/1/6 270/1/6 272/1/6
f 272/1/6 270/1/6 273/1/6
f 273/1/6 270/1/6 274/1/6
f 272/1/6 273/1/6 275/1/6
f 275/1/6 273/1/6 276/1/6
