# MagicaVoxel @ Ephtracy

# group
o 

# material
mtllib Ground.mtl
usemtl palette

# normals
vn -1 0 0
vn 1 0 0
vn 0 0 1
vn 0 0 -1
vn 0 -1 0
vn 0 1 0

# texcoords
vt 0.974609 0.5
vt 0.978516 0.5
vt 0.982422 0.5

# verts
v -0.4 0 0.4
v -0.4 0 -0.4
v -0.4 0.4 0.4
v -0.4 0.4 -0.4
v -0.4 0.6 0.4
v -0.4 0.6 -0.4
v -0.4 0.8 0.4
v -0.4 0.8 -0.4
v 0.3 0.1 0.3
v 0.3 0.1 -0.3
v 0.3 0.4 0.3
v 0.3 0.4 -0.3
v 0.3 0.6 0.3
v 0.3 0.6 -0.3
v 0.3 0.7 0.3
v 0.3 0.7 -0.3
v -0.3 0.1 0.3
v -0.3 0.1 -0.3
v -0.3 0.4 0.3
v -0.3 0.4 -0.3
v -0.3 0.6 0.3
v -0.3 0.6 -0.3
v -0.3 0.7 0.3
v -0.3 0.7 -0.3
v 0.4 0 0.4
v 0.4 0 -0.4
v 0.4 0.4 0.4
v 0.4 0.4 -0.4
v 0.4 0.6 0.4
v 0.4 0.6 -0.4
v 0.4 0.8 0.4
v 0.4 0.8 -0.4
v -0.4 0 0.4
v -0.4 0.4 0.4
v -0.4 0.6 0.4
v -0.4 0.8 0.4
v 0.4 0 0.4
v 0.4 0.4 0.4
v 0.4 0.6 0.4
v 0.4 0.8 0.4
v -0.3 0.1 -0.3
v -0.3 0.4 -0.3
v -0.3 0.6 -0.3
v -0.3 0.7 -0.3
v 0.3 0.1 -0.3
v 0.3 0.4 -0.3
v 0.3 0.6 -0.3
v 0.3 0.7 -0.3
v -0.3 0.1 0.3
v -0.3 0.4 0.3
v -0.3 0.6 0.3
v -0.3 0.7 0.3
v 0.3 0.1 0.3
v 0.3 0.4 0.3
v 0.3 0.6 0.3
v 0.3 0.7 0.3
v -0.4 0 -0.4
v -0.4 0.4 -0.4
v -0.4 0.6 -0.4
v -0.4 0.8 -0.4
v 0.4 0 -0.4
v 0.4 0.4 -0.4
v 0.4 0.6 -0.4
v 0.4 0.8 -0.4
v -0.4 0 0.4
v 0.4 0 0.4
v -0.4 0 -0.4
v 0.4 0 -0.4
v -0.3 0.7 0.3
v 0.3 0.7 0.3
v -0.3 0.7 -0.3
v 0.3 0.7 -0.3
v -0.3 0.1 0.3
v 0.3 0.1 0.3
v -0.3 0.1 -0.3
v 0.3 0.1 -0.3
v -0.4 0.8 0.4
v 0.4 0.8 0.4
v -0.4 0.8 -0.4
v 0.4 0.8 -0.4

# faces
f 3/3/1 2/3/1 1/3/1
f 4/3/1 2/3/1 3/3/1
f 5/2/1 4/2/1 3/2/1
f 6/2/1 4/2/1 5/2/1
f 7/1/1 6/1/1 5/1/1
f 8/1/1 6/1/1 7/1/1
f 11/3/1 10/3/1 9/3/1
f 12/3/1 10/3/1 11/3/1
f 13/2/1 12/2/1 11/2/1
f 14/2/1 12/2/1 13/2/1
f 15/1/1 14/1/1 13/1/1
f 16/1/1 14/1/1 15/1/1
f 17/3/2 18/3/2 19/3/2
f 19/3/2 18/3/2 20/3/2
f 19/2/2 20/2/2 21/2/2
f 21/2/2 20/2/2 22/2/2
f 21/1/2 22/1/2 23/1/2
f 23/1/2 22/1/2 24/1/2
f 25/3/2 26/3/2 27/3/2
f 27/3/2 26/3/2 28/3/2
f 27/2/2 28/2/2 29/2/2
f 29/2/2 28/2/2 30/2/2
f 29/1/2 30/1/2 31/1/2
f 31/1/2 30/1/2 32/1/2
f 37/3/3 34/3/3 33/3/3
f 38/2/3 35/2/3 34/2/3
f 38/3/3 34/3/3 37/3/3
f 39/1/3 36/1/3 35/1/3
f 39/2/3 35/2/3 38/2/3
f 40/1/3 36/1/3 39/1/3
f 45/3/3 42/3/3 41/3/3
f 46/2/3 43/2/3 42/2/3
f 46/3/3 42/3/3 45/3/3
f 47/1/3 44/1/3 43/1/3
f 47/2/3 43/2/3 46/2/3
f 48/1/3 44/1/3 47/1/3
f 49/3/4 50/3/4 53/3/4
f 50/2/4 51/2/4 54/2/4
f 53/3/4 50/3/4 54/3/4
f 51/1/4 52/1/4 55/1/4
f 54/2/4 51/2/4 55/2/4
f 55/1/4 52/1/4 56/1/4
f 57/3/4 58/3/4 61/3/4
f 58/2/4 59/2/4 62/2/4
f 61/3/4 58/3/4 62/3/4
f 59/1/4 60/1/4 63/1/4
f 62/2/4 59/2/4 63/2/4
f 63/1/4 60/1/4 64/1/4
f 67/3/5 66/3/5 65/3/5
f 68/3/5 66/3/5 67/3/5
f 71/1/5 70/1/5 69/1/5
f 72/1/5 70/1/5 71/1/5
f 73/3/6 74/3/6 75/3/6
f 75/3/6 74/3/6 76/3/6
f 77/1/6 78/1/6 79/1/6
f 79/1/6 78/1/6 80/1/6
