# MagicaVoxel @ Ephtracy

# group
o 

# material
mtllib InteractiveBlock.mtl
usemtl palette

# normals
vn -1 0 0
vn 1 0 0
vn 0 0 1
vn 0 0 -1
vn 0 -1 0
vn 0 1 0

# texcoords
vt 0.970703 0.5
vt 0.974609 0.5
vt 0.978516 0.5

# verts
v -0.4 0 0.4
v -0.4 0 0.2
v -0.4 0 0.1
v -0.4 0 -0.1
v -0.4 0 -0.2
v -0.4 0 -0.4
v -0.4 0.2 0.4
v -0.4 0.2 0.2
v -0.4 0.2 0.1
v -0.4 0.2 -0.1
v -0.4 0.2 -0.2
v -0.4 0.2 -0.4
v -0.4 0.3 0.4
v -0.4 0.3 0.2
v -0.4 0.3 0.1
v -0.4 0.3 -0.1
v -0.4 0.3 -0.2
v -0.4 0.3 -0.4
v -0.4 0.5 0.4
v -0.4 0.5 0.2
v -0.4 0.5 0.1
v -0.4 0.5 -0.1
v -0.4 0.5 -0.2
v -0.4 0.5 -0.4
v -0.4 0.6 0.4
v -0.4 0.6 0.2
v -0.4 0.6 0.1
v -0.4 0.6 -0.1
v -0.4 0.6 -0.2
v -0.4 0.6 -0.4
v -0.4 0.8 0.4
v -0.4 0.8 0.2
v -0.4 0.8 0.1
v -0.4 0.8 -0.1
v -0.4 0.8 -0.2
v -0.4 0.8 -0.4
v 0.3 0.1 0.3
v 0.3 0.1 0.2
v 0.3 0.1 0.1
v 0.3 0.1 -0.1
v 0.3 0.1 -0.2
v 0.3 0.1 -0.3
v 0.3 0.2 0.3
v 0.3 0.2 0.2
v 0.3 0.2 0.1
v 0.3 0.2 -0.1
v 0.3 0.2 -0.2
v 0.3 0.2 -0.3
v 0.3 0.3 0.3
v 0.3 0.3 0.2
v 0.3 0.3 0.1
v 0.3 0.3 -0.1
v 0.3 0.3 -0.2
v 0.3 0.3 -0.3
v 0.3 0.5 0.3
v 0.3 0.5 0.2
v 0.3 0.5 0.1
v 0.3 0.5 -0.1
v 0.3 0.5 -0.2
v 0.3 0.5 -0.3
v 0.3 0.6 0.3
v 0.3 0.6 0.2
v 0.3 0.6 0.1
v 0.3 0.6 -0.1
v 0.3 0.6 -0.2
v 0.3 0.6 -0.3
v 0.3 0.7 0.3
v 0.3 0.7 0.2
v 0.3 0.7 0.1
v 0.3 0.7 -0.1
v 0.3 0.7 -0.2
v 0.3 0.7 -0.3
v -0.3 0.1 0.3
v -0.3 0.1 0.2
v -0.3 0.1 0.1
v -0.3 0.1 -0.1
v -0.3 0.1 -0.2
v -0.3 0.1 -0.3
v -0.3 0.2 0.3
v -0.3 0.2 0.2
v -0.3 0.2 0.1
v -0.3 0.2 -0.1
v -0.3 0.2 -0.2
v -0.3 0.2 -0.3
v -0.3 0.3 0.3
v -0.3 0.3 0.2
v -0.3 0.3 0.1
v -0.3 0.3 -0.1
v -0.3 0.3 -0.2
v -0.3 0.3 -0.3
v -0.3 0.5 0.3
v -0.3 0.5 0.2
v -0.3 0.5 0.1
v -0.3 0.5 -0.1
v -0.3 0.5 -0.2
v -0.3 0.5 -0.3
v -0.3 0.6 0.3
v -0.3 0.6 0.2
v -0.3 0.6 0.1
v -0.3 0.6 -0.1
v -0.3 0.6 -0.2
v -0.3 0.6 -0.3
v -0.3 0.7 0.3
v -0.3 0.7 0.2
v -0.3 0.7 0.1
v -0.3 0.7 -0.1
v -0.3 0.7 -0.2
v -0.3 0.7 -0.3
v 0.4 0 0.4
v 0.4 0 0.2
v 0.4 0 0.1
v 0.4 0 -0.1
v 0.4 0 -0.2
v 0.4 0 -0.4
v 0.4 0.2 0.4
v 0.4 0.2 0.2
v 0.4 0.2 0.1
v 0.4 0.2 -0.1
v 0.4 0.2 -0.2
v 0.4 0.2 -0.4
v 0.4 0.3 0.4
v 0.4 0.3 0.2
v 0.4 0.3 0.1
v 0.4 0.3 -0.1
v 0.4 0.3 -0.2
v 0.4 0.3 -0.4
v 0.4 0.5 0.4
v 0.4 0.5 0.2
v 0.4 0.5 0.1
v 0.4 0.5 -0.1
v 0.4 0.5 -0.2
v 0.4 0.5 -0.4
v 0.4 0.6 0.4
v 0.4 0.6 0.2
v 0.4 0.6 0.1
v 0.4 0.6 -0.1
v 0.4 0.6 -0.2
v 0.4 0.6 -0.4
v 0.4 0.8 0.4
v 0.4 0.8 0.2
v 0.4 0.8 0.1
v 0.4 0.8 -0.1
v 0.4 0.8 -0.2
v 0.4 0.8 -0.4
v -0.4 0 0.4
v -0.4 0.2 0.4
v -0.4 0.3 0.4
v -0.4 0.5 0.4
v -0.4 0.6 0.4
v -0.4 0.8 0.4
v -0.2 0 0.4
v -0.2 0.2 0.4
v -0.2 0.3 0.4
v -0.2 0.5 0.4
v -0.2 0.6 0.4
v -0.2 0.8 0.4
v -0.1 0 0.4
v -0.1 0.2 0.4
v -0.1 0.3 0.4
v -0.1 0.5 0.4
v -0.1 0.6 0.4
v -0.1 0.8 0.4
v 0.1 0 0.4
v 0.1 0.2 0.4
v 0.1 0.3 0.4
v 0.1 0.5 0.4
v 0.1 0.6 0.4
v 0.1 0.8 0.4
v 0.2 0 0.4
v 0.2 0.2 0.4
v 0.2 0.3 0.4
v 0.2 0.5 0.4
v 0.2 0.6 0.4
v 0.2 0.8 0.4
v 0.4 0 0.4
v 0.4 0.2 0.4
v 0.4 0.3 0.4
v 0.4 0.5 0.4
v 0.4 0.6 0.4
v 0.4 0.8 0.4
v -0.3 0.1 -0.3
v -0.3 0.2 -0.3
v -0.3 0.3 -0.3
v -0.3 0.5 -0.3
v -0.3 0.6 -0.3
v -0.3 0.7 -0.3
v -0.2 0.1 -0.3
v -0.2 0.2 -0.3
v -0.2 0.3 -0.3
v -0.2 0.5 -0.3
v -0.2 0.6 -0.3
v -0.2 0.7 -0.3
v -0.1 0.1 -0.3
v -0.1 0.2 -0.3
v -0.1 0.3 -0.3
v -0.1 0.5 -0.3
v -0.1 0.6 -0.3
v -0.1 0.7 -0.3
v 0.1 0.1 -0.3
v 0.1 0.2 -0.3
v 0.1 0.3 -0.3
v 0.1 0.5 -0.3
v 0.1 0.6 -0.3
v 0.1 0.7 -0.3
v 0.2 0.1 -0.3
v 0.2 0.2 -0.3
v 0.2 0.3 -0.3
v 0.2 0.5 -0.3
v 0.2 0.6 -0.3
v 0.2 0.7 -0.3
v 0.3 0.1 -0.3
v 0.3 0.2 -0.3
v 0.3 0.3 -0.3
v 0.3 0.5 -0.3
v 0.3 0.6 -0.3
v 0.3 0.7 -0.3
v -0.3 0.1 0.3
v -0.3 0.2 0.3
v -0.3 0.3 0.3
v -0.3 0.5 0.3
v -0.3 0.6 0.3
v -0.3 0.7 0.3
v -0.2 0.1 0.3
v -0.2 0.2 0.3
v -0.2 0.3 0.3
v -0.2 0.5 0.3
v -0.2 0.6 0.3
v -0.2 0.7 0.3
v -0.1 0.1 0.3
v -0.1 0.2 0.3
v -0.1 0.3 0.3
v -0.1 0.5 0.3
v -0.1 0.6 0.3
v -0.1 0.7 0.3
v 0.1 0.1 0.3
v 0.1 0.2 0.3
v 0.1 0.3 0.3
v 0.1 0.5 0.3
v 0.1 0.6 0.3
v 0.1 0.7 0.3
v 0.2 0.1 0.3
v 0.2 0.2 0.3
v 0.2 0.3 0.3
v 0.2 0.5 0.3
v 0.2 0.6 0.3
v 0.2 0.7 0.3
v 0.3 0.1 0.3
v 0.3 0.2 0.3
v 0.3 0.3 0.3
v 0.3 0.5 0.3
v 0.3 0.6 0.3
v 0.3 0.7 0.3
v -0.4 0 -0.4
v -0.4 0.2 -0.4
v -0.4 0.3 -0.4
v -0.4 0.5 -0.4
v -0.4 0.6 -0.4
v -0.4 0.8 -0.4
v -0.2 0 -0.4
v -0.2 0.2 -0.4
v -0.2 0.3 -0.4
v -0.2 0.5 -0.4
v -0.2 0.6 -0.4
v -0.2 0.8 -0.4
v -0.1 0 -0.4
v -0.1 0.2 -0.4
v -0.1 0.3 -0.4
v -0.1 0.5 -0.4
v -0.1 0.6 -0.4
v -0.1 0.8 -0.4
v 0.1 0 -0.4
v 0.1 0.2 -0.4
v 0.1 0.3 -0.4
v 0.1 0.5 -0.4
v 0.1 0.6 -0.4
v 0.1 0.8 -0.4
v 0.2 0 -0.4
v 0.2 0.2 -0.4
v 0.2 0.3 -0.4
v 0.2 0.5 -0.4
v 0.2 0.6 -0.4
v 0.2 0.8 -0.4
v 0.4 0 -0.4
v 0.4 0.2 -0.4
v 0.4 0.3 -0.4
v 0.4 0.5 -0.4
v 0.4 0.6 -0.4
v 0.4 0.8 -0.4
v -0.4 0 0.4
v -0.2 0 0.4
v -0.1 0 0.4
v 0.1 0 0.4
v 0.2 0 0.4
v 0.4 0 0.4
v -0.4 0 0.2
v -0.2 0 0.2
v -0.1 0 0.2
v 0.1 0 0.2
v 0.2 0 0.2
v 0.4 0 0.2
v -0.4 0 0.1
v -0.2 0 0.1
v -0.1 0 0.1
v 0.1 0 0.1
v 0.2 0 0.1
v 0.4 0 0.1
v -0.4 0 -0.1
v -0.2 0 -0.1
v -0.1 0 -0.1
v 0.1 0 -0.1
v 0.2 0 -0.1
v 0.4 0 -0.1
v -0.4 0 -0.2
v -0.2 0 -0.2
v -0.1 0 -0.2
v 0.1 0 -0.2
v 0.2 0 -0.2
v 0.4 0 -0.2
v -0.4 0 -0.4
v -0.2 0 -0.4
v -0.1 0 -0.4
v 0.1 0 -0.4
v 0.2 0 -0.4
v 0.4 0 -0.4
v -0.3 0.7 0.3
v -0.2 0.7 0.3
v -0.1 0.7 0.3
v 0.1 0.7 0.3
v 0.2 0.7 0.3
v 0.3 0.7 0.3
v -0.3 0.7 0.2
v -0.2 0.7 0.2
v -0.1 0.7 0.2
v 0.1 0.7 0.2
v 0.2 0.7 0.2
v 0.3 0.7 0.2
v -0.3 0.7 0.1
v -0.2 0.7 0.1
v -0.1 0.7 0.1
v 0.1 0.7 0.1
v 0.2 0.7 0.1
v 0.3 0.7 0.1
v -0.3 0.7 -0.1
v -0.2 0.7 -0.1
v -0.1 0.7 -0.1
v 0.1 0.7 -0.1
v 0.2 0.7 -0.1
v 0.3 0.7 -0.1
v -0.3 0.7 -0.2
v -0.2 0.7 -0.2
v -0.1 0.7 -0.2
v 0.1 0.7 -0.2
v 0.2 0.7 -0.2
v 0.3 0.7 -0.2
v -0.3 0.7 -0.3
v -0.2 0.7 -0.3
v -0.1 0.7 -0.3
v 0.1 0.7 -0.3
v 0.2 0.7 -0.3
v 0.3 0.7 -0.3
v -0.3 0.1 0.3
v -0.2 0.1 0.3
v -0.1 0.1 0.3
v 0.1 0.1 0.3
v 0.2 0.1 0.3
v 0.3 0.1 0.3
v -0.3 0.1 0.2
v -0.2 0.1 0.2
v -0.1 0.1 0.2
v 0.1 0.1 0.2
v 0.2 0.1 0.2
v 0.3 0.1 0.2
v -0.3 0.1 0.1
v -0.2 0.1 0.1
v -0.1 0.1 0.1
v 0.1 0.1 0.1
v 0.2 0.1 0.1
v 0.3 0.1 0.1
v -0.3 0.1 -0.1
v -0.2 0.1 -0.1
v -0.1 0.1 -0.1
v 0.1 0.1 -0.1
v 0.2 0.1 -0.1
v 0.3 0.1 -0.1
v -0.3 0.1 -0.2
v -0.2 0.1 -0.2
v -0.1 0.1 -0.2
v 0.1 0.1 -0.2
v 0.2 0.1 -0.2
v 0.3 0.1 -0.2
v -0.3 0.1 -0.3
v -0.2 0.1 -0.3
v -0.1 0.1 -0.3
v 0.1 0.1 -0.3
v 0.2 0.1 -0.3
v 0.3 0.1 -0.3
v -0.4 0.8 0.4
v -0.2 0.8 0.4
v -0.1 0.8 0.4
v 0.1 0.8 0.4
v 0.2 0.8 0.4
v 0.4 0.8 0.4
v -0.4 0.8 0.2
v -0.2 0.8 0.2
v -0.1 0.8 0.2
v 0.1 0.8 0.2
v 0.2 0.8 0.2
v 0.4 0.8 0.2
v -0.4 0.8 0.1
v -0.2 0.8 0.1
v -0.1 0.8 0.1
v 0.1 0.8 0.1
v 0.2 0.8 0.1
v 0.4 0.8 0.1
v -0.4 0.8 -0.1
v -0.2 0.8 -0.1
v -0.1 0.8 -0.1
v 0.1 0.8 -0.1
v 0.2 0.8 -0.1
v 0.4 0.8 -0.1
v -0.4 0.8 -0.2
v -0.2 0.8 -0.2
v -0.1 0.8 -0.2
v 0.1 0.8 -0.2
v 0.2 0.8 -0.2
v 0.4 0.8 -0.2
v -0.4 0.8 -0.4
v -0.2 0.8 -0.4
v -0.1 0.8 -0.4
v 0.1 0.8 -0.4
v 0.2 0.8 -0.4
v 0.4 0.8 -0.4

# faces
f 7/2/1 2/2/1 1/2/1
f 8/3/1 3/3/1 2/3/1
f 8/2/1 2/2/1 7/2/1
f 9/1/1 4/1/1 3/1/1
f 9/3/1 3/3/1 8/3/1
f 10/3/1 5/3/1 4/3/1
f 10/1/1 4/1/1 9/1/1
f 11/2/1 6/2/1 5/2/1
f 11/3/1 5/3/1 10/3/1
f 12/2/1 6/2/1 11/2/1
f 13/3/1 10/3/1 9/3/1
f 13/3/1 8/3/1 7/3/1
f 13/3/1 12/3/1 11/3/1
f 13/3/1 11/3/1 10/3/1
f 13/3/1 9/3/1 8/3/1
f 14/3/1 12/3/1 13/3/1
f 15/3/1 12/3/1 14/3/1
f 16/3/1 12/3/1 15/3/1
f 17/3/1 12/3/1 16/3/1
f 18/3/1 12/3/1 17/3/1
f 19/1/1 14/1/1 13/1/1
f 20/3/1 15/3/1 14/3/1
f 20/1/1 14/1/1 19/1/1
f 21/2/1 16/2/1 15/2/1
f 21/3/1 15/3/1 20/3/1
f 22/3/1 17/3/1 16/3/1
f 22/2/1 16/2/1 21/2/1
f 23/1/1 18/1/1 17/1/1
f 23/3/1 17/3/1 22/3/1
f 24/1/1 18/1/1 23/1/1
f 25/3/1 20/3/1 19/3/1
f 25/3/1 21/3/1 20/3/1
f 25/3/1 24/3/1 23/3/1
f 25/3/1 23/3/1 22/3/1
f 25/3/1 22/3/1 21/3/1
f 26/3/1 24/3/1 25/3/1
f 27/3/1 24/3/1 26/3/1
f 28/3/1 24/3/1 27/3/1
f 29/3/1 24/3/1 28/3/1
f 30/3/1 24/3/1 29/3/1
f 31/2/1 26/2/1 25/2/1
f 32/3/1 27/3/1 26/3/1
f 32/2/1 26/2/1 31/2/1
f 33/1/1 28/1/1 27/1/1
f 33/3/1 27/3/1 32/3/1
f 34/3/1 29/3/1 28/3/1
f 34/1/1 28/1/1 33/1/1
f 35/2/1 30/2/1 29/2/1
f 35/3/1 29/3/1 34/3/1
f 36/2/1 30/2/1 35/2/1
f 43/2/1 38/2/1 37/2/1
f 44/3/1 39/3/1 38/3/1
f 44/2/1 38/2/1 43/2/1
f 45/1/1 40/1/1 39/1/1
f 45/3/1 39/3/1 44/3/1
f 46/3/1 41/3/1 40/3/1
f 46/1/1 40/1/1 45/1/1
f 47/2/1 42/2/1 41/2/1
f 47/3/1 41/3/1 46/3/1
f 48/2/1 42/2/1 47/2/1
f 49/3/1 46/3/1 45/3/1
f 49/3/1 44/3/1 43/3/1
f 49/3/1 48/3/1 47/3/1
f 49/3/1 47/3/1 46/3/1
f 49/3/1 45/3/1 44/3/1
f 50/3/1 48/3/1 49/3/1
f 51/3/1 48/3/1 50/3/1
f 52/3/1 48/3/1 51/3/1
f 53/3/1 48/3/1 52/3/1
f 54/3/1 48/3/1 53/3/1
f 55/1/1 50/1/1 49/1/1
f 56/3/1 51/3/1 50/3/1
f 56/1/1 50/1/1 55/1/1
f 57/2/1 52/2/1 51/2/1
f 57/3/1 51/3/1 56/3/1
f 58/3/1 53/3/1 52/3/1
f 58/2/1 52/2/1 57/2/1
f 59/1/1 54/1/1 53/1/1
f 59/3/1 53/3/1 58/3/1
f 60/1/1 54/1/1 59/1/1
f 61/3/1 56/3/1 55/3/1
f 61/3/1 57/3/1 56/3/1
f 61/3/1 60/3/1 59/3/1
f 61/3/1 59/3/1 58/3/1
f 61/3/1 58/3/1 57/3/1
f 62/3/1 60/3/1 61/3/1
f 63/3/1 60/3/1 62/3/1
f 64/3/1 60/3/1 63/3/1
f 65/3/1 60/3/1 64/3/1
f 66/3/1 60/3/1 65/3/1
f 67/2/1 62/2/1 61/2/1
f 68/3/1 63/3/1 62/3/1
f 68/2/1 62/2/1 67/2/1
f 69/1/1 64/1/1 63/1/1
f 69/3/1 63/3/1 68/3/1
f 70/3/1 65/3/1 64/3/1
f 70/1/1 64/1/1 69/1/1
f 71/2/1 66/2/1 65/2/1
f 71/3/1 65/3/1 70/3/1
f 72/2/1 66/2/1 71/2/1
f 73/2/2 74/2/2 79/2/2
f 74/3/2 75/3/2 80/3/2
f 79/2/2 74/2/2 80/2/2
f 75/1/2 76/1/2 81/1/2
f 80/3/2 75/3/2 81/3/2
f 76/3/2 77/3/2 82/3/2
f 81/1/2 76/1/2 82/1/2
f 77/2/2 78/2/2 83/2/2
f 82/3/2 77/3/2 83/3/2
f 83/2/2 78/2/2 84/2/2
f 81/3/2 82/3/2 85/3/2
f 79/3/2 80/3/2 85/3/2
f 83/3/2 84/3/2 85/3/2
f 82/3/2 83/3/2 85/3/2
f 80/3/2 81/3/2 85/3/2
f 85/3/2 84/3/2 86/3/2
f 86/3/2 84/3/2 87/3/2
f 87/3/2 84/3/2 88/3/2
f 88/3/2 84/3/2 89/3/2
f 89/3/2 84/3/2 90/3/2
f 85/1/2 86/1/2 91/1/2
f 86/3/2 87/3/2 92/3/2
f 91/1/2 86/1/2 92/1/2
f 87/2/2 88/2/2 93/2/2
f 92/3/2 87/3/2 93/3/2
f 88/3/2 89/3/2 94/3/2
f 93/2/2 88/2/2 94/2/2
f 89/1/2 90/1/2 95/1/2
f 94/3/2 89/3/2 95/3/2
f 95/1/2 90/1/2 96/1/2
f 91/3/2 92/3/2 97/3/2
f 92/3/2 93/3/2 97/3/2
f 95/3/2 96/3/2 97/3/2
f 94/3/2 95/3/2 97/3/2
f 93/3/2 94/3/2 97/3/2
f 97/3/2 96/3/2 98/3/2
f 98/3/2 96/3/2 99/3/2
f 99/3/2 96/3/2 100/3/2
f 100/3/2 96/3/2 101/3/2
f 101/3/2 96/3/2 102/3/2
f 97/2/2 98/2/2 103/2/2
f 98/3/2 99/3/2 104/3/2
f 103/2/2 98/2/2 104/2/2
f 99/1/2 100/1/2 105/1/2
f 104/3/2 99/3/2 105/3/2
f 100/3/2 101/3/2 106/3/2
f 105/1/2 100/1/2 106/1/2
f 101/2/2 102/2/2 107/2/2
f 106/3/2 101/3/2 107/3/2
f 107/2/2 102/2/2 108/2/2
f 109/2/2 110/2/2 115/2/2
f 110/3/2 111/3/2 116/3/2
f 115/2/2 110/2/2 116/2/2
f 111/1/2 112/1/2 117/1/2
f 116/3/2 111/3/2 117/3/2
f 112/3/2 113/3/2 118/3/2
f 117/1/2 112/1/2 118/1/2
f 113/2/2 114/2/2 119/2/2
f 118/3/2 113/3/2 119/3/2
f 119/2/2 114/2/2 120/2/2
f 117/3/2 118/3/2 121/3/2
f 115/3/2 116/3/2 121/3/2
f 119/3/2 120/3/2 121/3/2
f 118/3/2 119/3/2 121/3/2
f 116/3/2 117/3/2 121/3/2
f 121/3/2 120/3/2 122/3/2
f 122/3/2 120/3/2 123/3/2
f 123/3/2 120/3/2 124/3/2
f 124/3/2 120/3/2 125/3/2
f 125/3/2 120/3/2 126/3/2
f 121/1/2 122/1/2 127/1/2
f 122/3/2 123/3/2 128/3/2
f 127/1/2 122/1/2 128/1/2
f 123/2/2 124/2/2 129/2/2
f 128/3/2 123/3/2 129/3/2
f 124/3/2 125/3/2 130/3/2
f 129/2/2 124/2/2 130/2/2
f 125/1/2 126/1/2 131/1/2
f 130/3/2 125/3/2 131/3/2
f 131/1/2 126/1/2 132/1/2
f 127/3/2 128/3/2 133/3/2
f 128/3/2 129/3/2 133/3/2
f 131/3/2 132/3/2 133/3/2
f 130/3/2 131/3/2 133/3/2
f 129/3/2 130/3/2 133/3/2
f 133/3/2 132/3/2 134/3/2
f 134/3/2 132/3/2 135/3/2
f 135/3/2 132/3/2 136/3/2
f 136/3/2 132/3/2 137/3/2
f 137/3/2 132/3/2 138/3/2
f 133/2/2 134/2/2 139/2/2
f 134/3/2 135/3/2 140/3/2
f 139/2/2 134/2/2 140/2/2
f 135/1/2 136/1/2 141/1/2
f 140/3/2 135/3/2 141/3/2
f 136/3/2 137/3/2 142/3/2
f 141/1/2 136/1/2 142/1/2
f 137/2/2 138/2/2 143/2/2
f 142/3/2 137/3/2 143/3/2
f 143/2/2 138/2/2 144/2/2
f 151/2/3 146/2/3 145/2/3
f 152/3/3 147/3/3 146/3/3
f 152/2/3 146/2/3 151/2/3
f 153/1/3 148/1/3 147/1/3
f 153/3/3 147/3/3 152/3/3
f 154/3/3 149/3/3 148/3/3
f 154/1/3 148/1/3 153/1/3
f 155/2/3 150/2/3 149/2/3
f 155/3/3 149/3/3 154/3/3
f 156/2/3 150/2/3 155/2/3
f 157/3/3 154/3/3 153/3/3
f 157/3/3 152/3/3 151/3/3
f 157/3/3 156/3/3 155/3/3
f 157/3/3 155/3/3 154/3/3
f 157/3/3 153/3/3 152/3/3
f 158/3/3 156/3/3 157/3/3
f 159/3/3 156/3/3 158/3/3
f 160/3/3 156/3/3 159/3/3
f 161/3/3 156/3/3 160/3/3
f 162/3/3 156/3/3 161/3/3
f 163/1/3 158/1/3 157/1/3
f 164/3/3 159/3/3 158/3/3
f 164/1/3 158/1/3 163/1/3
f 165/2/3 160/2/3 159/2/3
f 165/3/3 159/3/3 164/3/3
f 166/3/3 161/3/3 160/3/3
f 166/2/3 160/2/3 165/2/3
f 167/1/3 162/1/3 161/1/3
f 167/3/3 161/3/3 166/3/3
f 168/1/3 162/1/3 167/1/3
f 169/3/3 164/3/3 163/3/3
f 169/3/3 165/3/3 164/3/3
f 169/3/3 168/3/3 167/3/3
f 169/3/3 167/3/3 166/3/3
f 169/3/3 166/3/3 165/3/3
f 170/3/3 168/3/3 169/3/3
f 171/3/3 168/3/3 170/3/3
f 172/3/3 168/3/3 171/3/3
f 173/3/3 168/3/3 172/3/3
f 174/3/3 168/3/3 173/3/3
f 175/2/3 170/2/3 169/2/3
f 176/3/3 171/3/3 170/3/3
f 176/2/3 170/2/3 175/2/3
f 177/1/3 172/1/3 171/1/3
f 177/3/3 171/3/3 176/3/3
f 178/3/3 173/3/3 172/3/3
f 178/1/3 172/1/3 177/1/3
f 179/2/3 174/2/3 173/2/3
f 179/3/3 173/3/3 178/3/3
f 180/2/3 174/2/3 179/2/3
f 187/2/3 182/2/3 181/2/3
f 188/3/3 183/3/3 182/3/3
f 188/2/3 182/2/3 187/2/3
f 189/1/3 184/1/3 183/1/3
f 189/3/3 183/3/3 188/3/3
f 190/3/3 185/3/3 184/3/3
f 190/1/3 184/1/3 189/1/3
f 191/2/3 186/2/3 185/2/3
f 191/3/3 185/3/3 190/3/3
f 192/2/3 186/2/3 191/2/3
f 193/3/3 190/3/3 189/3/3
f 193/3/3 188/3/3 187/3/3
f 193/3/3 192/3/3 191/3/3
f 193/3/3 191/3/3 190/3/3
f 193/3/3 189/3/3 188/3/3
f 194/3/3 192/3/3 193/3/3
f 195/3/3 192/3/3 194/3/3
f 196/3/3 192/3/3 195/3/3
f 197/3/3 192/3/3 196/3/3
f 198/3/3 192/3/3 197/3/3
f 199/1/3 194/1/3 193/1/3
f 200/3/3 195/3/3 194/3/3
f 200/1/3 194/1/3 199/1/3
f 201/2/3 196/2/3 195/2/3
f 201/3/3 195/3/3 200/3/3
f 202/3/3 197/3/3 196/3/3
f 202/2/3 196/2/3 201/2/3
f 203/1/3 198/1/3 197/1/3
f 203/3/3 197/3/3 202/3/3
f 204/1/3 198/1/3 203/1/3
f 205/3/3 200/3/3 199/3/3
f 205/3/3 201/3/3 200/3/3
f 205/3/3 204/3/3 203/3/3
f 205/3/3 203/3/3 202/3/3
f 205/3/3 202/3/3 201/3/3
f 206/3/3 204/3/3 205/3/3
f 207/3/3 204/3/3 206/3/3
f 208/3/3 204/3/3 207/3/3
f 209/3/3 204/3/3 208/3/3
f 210/3/3 204/3/3 209/3/3
f 211/2/3 206/2/3 205/2/3
f 212/3/3 207/3/3 206/3/3
f 212/2/3 206/2/3 211/2/3
f 213/1/3 208/1/3 207/1/3
f 213/3/3 207/3/3 212/3/3
f 214/3/3 209/3/3 208/3/3
f 214/1/3 208/1/3 213/1/3
f 215/2/3 210/2/3 209/2/3
f 215/3/3 209/3/3 214/3/3
f 216/2/3 210/2/3 215/2/3
f 217/2/4 218/2/4 223/2/4
f 218/3/4 219/3/4 224/3/4
f 223/2/4 218/2/4 224/2/4
f 219/1/4 220/1/4 225/1/4
f 224/3/4 219/3/4 225/3/4
f 220/3/4 221/3/4 226/3/4
f 225/1/4 220/1/4 226/1/4
f 221/2/4 222/2/4 227/2/4
f 226/3/4 221/3/4 227/3/4
f 227/2/4 222/2/4 228/2/4
f 225/3/4 226/3/4 229/3/4
f 223/3/4 224/3/4 229/3/4
f 227/3/4 228/3/4 229/3/4
f 226/3/4 227/3/4 229/3/4
f 224/3/4 225/3/4 229/3/4
f 229/3/4 228/3/4 230/3/4
f 230/3/4 228/3/4 231/3/4
f 231/3/4 228/3/4 232/3/4
f 232/3/4 228/3/4 233/3/4
f 233/3/4 228/3/4 234/3/4
f 229/1/4 230/1/4 235/1/4
f 230/3/4 231/3/4 236/3/4
f 235/1/4 230/1/4 236/1/4
f 231/2/4 232/2/4 237/2/4
f 236/3/4 231/3/4 237/3/4
f 232/3/4 233/3/4 238/3/4
f 237/2/4 232/2/4 238/2/4
f 233/1/4 234/1/4 239/1/4
f 238/3/4 233/3/4 239/3/4
f 239/1/4 234/1/4 240/1/4
f 235/3/4 236/3/4 241/3/4
f 236/3/4 237/3/4 241/3/4
f 239/3/4 240/3/4 241/3/4
f 238/3/4 239/3/4 241/3/4
f 237/3/4 238/3/4 241/3/4
f 241/3/4 240/3/4 242/3/4
f 242/3/4 240/3/4 243/3/4
f 243/3/4 240/3/4 244/3/4
f 244/3/4 240/3/4 245/3/4
f 245/3/4 240/3/4 246/3/4
f 241/2/4 242/2/4 247/2/4
f 242/3/4 243/3/4 248/3/4
f 247/2/4 242/2/4 248/2/4
f 243/1/4 244/1/4 249/1/4
f 248/3/4 243/3/4 249/3/4
f 244/3/4 245/3/4 250/3/4
f 249/1/4 244/1/4 250/1/4
f 245/2/4 246/2/4 251/2/4
f 250/3/4 245/3/4 251/3/4
f 251/2/4 246/2/4 252/2/4
f 253/2/4 254/2/4 259/2/4
f 254/3/4 255/3/4 260/3/4
f 259/2/4 254/2/4 260/2/4
f 255/1/4 256/1/4 261/1/4
f 260/3/4 255/3/4 261/3/4
f 256/3/4 257/3/4 262/3/4
f 261/1/4 256/1/4 262/1/4
f 257/2/4 258/2/4 263/2/4
f 262/3/4 257/3/4 263/3/4
f 263/2/4 258/2/4 264/2/4
f 261/3/4 262/3/4 265/3/4
f 259/3/4 260/3/4 265/3/4
f 263/3/4 264/3/4 265/3/4
f 262/3/4 263/3/4 265/3/4
f 260/3/4 261/3/4 265/3/4
f 265/3/4 264/3/4 266/3/4
f 266/3/4 264/3/4 267/3/4
f 267/3/4 264/3/4 268/3/4
f 268/3/4 264/3/4 269/3/4
f 269/3/4 264/3/4 270/3/4
f 265/1/4 266/1/4 271/1/4
f 266/3/4 267/3/4 272/3/4
f 271/1/4 266/1/4 272/1/4
f 267/2/4 268/2/4 273/2/4
f 272/3/4 267/3/4 273/3/4
f 268/3/4 269/3/4 274/3/4
f 273/2/4 268/2/4 274/2/4
f 269/1/4 270/1/4 275/1/4
f 274/3/4 269/3/4 275/3/4
f 275/1/4 270/1/4 276/1/4
f 271/3/4 272/3/4 277/3/4
f 272/3/4 273/3/4 277/3/4
f 275/3/4 276/3/4 277/3/4
f 274/3/4 275/3/4 277/3/4
f 273/3/4 274/3/4 277/3/4
f 277/3/4 276/3/4 278/3/4
f 278/3/4 276/3/4 279/3/4
f 279/3/4 276/3/4 280/3/4
f 280/3/4 276/3/4 281/3/4
f 281/3/4 276/3/4 282/3/4
f 277/2/4 278/2/4 283/2/4
f 278/3/4 279/3/4 284/3/4
f 283/2/4 278/2/4 284/2/4
f 279/1/4 280/1/4 285/1/4
f 284/3/4 279/3/4 285/3/4
f 280/3/4 281/3/4 286/3/4
f 285/1/4 280/1/4 286/1/4
f 281/2/4 282/2/4 287/2/4
f 286/3/4 281/3/4 287/3/4
f 287/2/4 282/2/4 288/2/4
f 295/2/5 290/2/5 289/2/5
f 296/3/5 291/3/5 290/3/5
f 296/2/5 290/2/5 295/2/5
f 297/1/5 292/1/5 291/1/5
f 297/3/5 291/3/5 296/3/5
f 298/3/5 293/3/5 292/3/5
f 298/1/5 292/1/5 297/1/5
f 299/2/5 294/2/5 293/2/5
f 299/3/5 293/3/5 298/3/5
f 300/2/5 294/2/5 299/2/5
f 301/3/5 298/3/5 297/3/5
f 301/3/5 296/3/5 295/3/5
f 301/3/5 300/3/5 299/3/5
f 301/3/5 299/3/5 298/3/5
f 301/3/5 297/3/5 296/3/5
f 302/3/5 300/3/5 301/3/5
f 303/3/5 300/3/5 302/3/5
f 304/3/5 300/3/5 303/3/5
f 305/3/5 300/3/5 304/3/5
f 306/3/5 300/3/5 305/3/5
f 307/1/5 302/1/5 301/1/5
f 308/3/5 303/3/5 302/3/5
f 308/1/5 302/1/5 307/1/5
f 309/2/5 304/2/5 303/2/5
f 309/3/5 303/3/5 308/3/5
f 310/3/5 305/3/5 304/3/5
f 310/2/5 304/2/5 309/2/5
f 311/1/5 306/1/5 305/1/5
f 311/3/5 305/3/5 310/3/5
f 312/1/5 306/1/5 311/1/5
f 313/3/5 308/3/5 307/3/5
f 313/3/5 309/3/5 308/3/5
f 313/3/5 312/3/5 311/3/5
f 313/3/5 311/3/5 310/3/5
f 313/3/5 310/3/5 309/3/5
f 314/3/5 312/3/5 313/3/5
f 315/3/5 312/3/5 314/3/5
f 316/3/5 312/3/5 315/3/5
f 317/3/5 312/3/5 316/3/5
f 318/3/5 312/3/5 317/3/5
f 319/2/5 314/2/5 313/2/5
f 320/3/5 315/3/5 314/3/5
f 320/2/5 314/2/5 319/2/5
f 321/1/5 316/1/5 315/1/5
f 321/3/5 315/3/5 320/3/5
f 322/3/5 317/3/5 316/3/5
f 322/1/5 316/1/5 321/1/5
f 323/2/5 318/2/5 317/2/5
f 323/3/5 317/3/5 322/3/5
f 324/2/5 318/2/5 323/2/5
f 331/2/5 326/2/5 325/2/5
f 332/3/5 327/3/5 326/3/5
f 332/2/5 326/2/5 331/2/5
f 333/1/5 328/1/5 327/1/5
f 333/3/5 327/3/5 332/3/5
f 334/3/5 329/3/5 328/3/5
f 334/1/5 328/1/5 333/1/5
f 335/2/5 330/2/5 329/2/5
f 335/3/5 329/3/5 334/3/5
f 336/2/5 330/2/5 335/2/5
f 337/3/5 334/3/5 333/3/5
f 337/3/5 332/3/5 331/3/5
f 337/3/5 336/3/5 335/3/5
f 337/3/5 335/3/5 334/3/5
f 337/3/5 333/3/5 332/3/5
f 338/3/5 336/3/5 337/3/5
f 339/3/5 336/3/5 338/3/5
f 340/3/5 336/3/5 339/3/5
f 341/3/5 336/3/5 340/3/5
f 342/3/5 336/3/5 341/3/5
f 343/1/5 338/1/5 337/1/5
f 344/3/5 339/3/5 338/3/5
f 344/1/5 338/1/5 343/1/5
f 345/2/5 340/2/5 339/2/5
f 345/3/5 339/3/5 344/3/5
f 346/3/5 341/3/5 340/3/5
f 346/2/5 340/2/5 345/2/5
f 347/1/5 342/1/5 341/1/5
f 347/3/5 341/3/5 346/3/5
f 348/1/5 342/1/5 347/1/5
f 349/3/5 344/3/5 343/3/5
f 349/3/5 345/3/5 344/3/5
f 349/3/5 348/3/5 347/3/5
f 349/3/5 347/3/5 346/3/5
f 349/3/5 346/3/5 345/3/5
f 350/3/5 348/3/5 349/3/5
f 351/3/5 348/3/5 350/3/5
f 352/3/5 348/3/5 351/3/5
f 353/3/5 348/3/5 352/3/5
f 354/3/5 348/3/5 353/3/5
f 355/2/5 350/2/5 349/2/5
f 356/3/5 351/3/5 350/3/5
f 356/2/5 350/2/5 355/2/5
f 357/1/5 352/1/5 351/1/5
f 357/3/5 351/3/5 356/3/5
f 358/3/5 353/3/5 352/3/5
f 358/1/5 352/1/5 357/1/5
f 359/2/5 354/2/5 353/2/5
f 359/3/5 353/3/5 358/3/5
f 360/2/5 354/2/5 359/2/5
f 361/2/6 362/2/6 367/2/6
f 362/3/6 363/3/6 368/3/6
f 367/2/6 362/2/6 368/2/6
f 363/1/6 364/1/6 369/1/6
f 368/3/6 363/3/6 369/3/6
f 364/3/6 365/3/6 370/3/6
f 369/1/6 364/1/6 370/1/6
f 365/2/6 366/2/6 371/2/6
f 370/3/6 365/3/6 371/3/6
f 371/2/6 366/2/6 372/2/6
f 369/3/6 370/3/6 373/3/6
f 367/3/6 368/3/6 373/3/6
f 371/3/6 372/3/6 373/3/6
f 370/3/6 371/3/6 373/3/6
f 368/3/6 369/3/6 373/3/6
f 373/3/6 372/3/6 374/3/6
f 374/3/6 372/3/6 375/3/6
f 375/3/6 372/3/6 376/3/6
f 376/3/6 372/3/6 377/3/6
f 377/3/6 372/3/6 378/3/6
f 373/1/6 374/1/6 379/1/6
f 374/3/6 375/3/6 380/3/6
f 379/1/6 374/1/6 380/1/6
f 375/2/6 376/2/6 381/2/6
f 380/3/6 375/3/6 381/3/6
f 376/3/6 377/3/6 382/3/6
f 381/2/6 376/2/6 382/2/6
f 377/1/6 378/1/6 383/1/6
f 382/3/6 377/3/6 383/3/6
f 383/1/6 378/1/6 384/1/6
f 379/3/6 380/3/6 385/3/6
f 380/3/6 381/3/6 385/3/6
f 383/3/6 384/3/6 385/3/6
f 382/3/6 383/3/6 385/3/6
f 381/3/6 382/3/6 385/3/6
f 385/3/6 384/3/6 386/3/6
f 386/3/6 384/3/6 387/3/6
f 387/3/6 384/3/6 388/3/6
f 388/3/6 384/3/6 389/3/6
f 389/3/6 384/3/6 390/3/6
f 385/2/6 386/2/6 391/2/6
f 386/3/6 387/3/6 392/3/6
f 391/2/6 386/2/6 392/2/6
f 387/1/6 388/1/6 393/1/6
f 392/3/6 387/3/6 393/3/6
f 388/3/6 389/3/6 394/3/6
f 393/1/6 388/1/6 394/1/6
f 389/2/6 390/2/6 395/2/6
f 394/3/6 389/3/6 395/3/6
f 395/2/6 390/2/6 396/2/6
f 397/2/6 398/2/6 403/2/6
f 398/3/6 399/3/6 404/3/6
f 403/2/6 398/2/6 404/2/6
f 399/1/6 400/1/6 405/1/6
f 404/3/6 399/3/6 405/3/6
f 400/3/6 401/3/6 406/3/6
f 405/1/6 400/1/6 406/1/6
f 401/2/6 402/2/6 407/2/6
f 406/3/6 401/3/6 407/3/6
f 407/2/6 402/2/6 408/2/6
f 405/3/6 406/3/6 409/3/6
f 403/3/6 404/3/6 409/3/6
f 407/3/6 408/3/6 409/3/6
f 406/3/6 407/3/6 409/3/6
f 404/3/6 405/3/6 409/3/6
f 409/3/6 408/3/6 410/3/6
f 410/3/6 408/3/6 411/3/6
f 411/3/6 408/3/6 412/3/6
f 412/3/6 408/3/6 413/3/6
f 413/3/6 408/3/6 414/3/6
f 409/1/6 410/1/6 415/1/6
f 410/3/6 411/3/6 416/3/6
f 415/1/6 410/1/6 416/1/6
f 411/2/6 412/2/6 417/2/6
f 416/3/6 411/3/6 417/3/6
f 412/3/6 413/3/6 418/3/6
f 417/2/6 412/2/6 418/2/6
f 413/1/6 414/1/6 419/1/6
f 418/3/6 413/3/6 419/3/6
f 419/1/6 414/1/6 420/1/6
f 415/3/6 416/3/6 421/3/6
f 416/3/6 417/3/6 421/3/6
f 419/3/6 420/3/6 421/3/6
f 418/3/6 419/3/6 421/3/6
f 417/3/6 418/3/6 421/3/6
f 421/3/6 420/3/6 422/3/6
f 422/3/6 420/3/6 423/3/6
f 423/3/6 420/3/6 424/3/6
f 424/3/6 420/3/6 425/3/6
f 425/3/6 420/3/6 426/3/6
f 421/2/6 422/2/6 427/2/6
f 422/3/6 423/3/6 428/3/6
f 427/2/6 422/2/6 428/2/6
f 423/1/6 424/1/6 429/1/6
f 428/3/6 423/3/6 429/3/6
f 424/3/6 425/3/6 430/3/6
f 429/1/6 424/1/6 430/1/6
f 425/2/6 426/2/6 431/2/6
f 430/3/6 425/3/6 431/3/6
f 431/2/6 426/2/6 432/2/6
