# MagicaVoxel @ Ephtracy

# group
o 

# material
mtllib Letter W.mtl
usemtl palette

# normals
vn -1 0 0
vn 1 0 0
vn 0 0 1
vn 0 0 -1
vn 0 -1 0
vn 0 1 0

# texcoords
vt 0.982422 0.5
vt 0.994141 0.5

# verts
v -0.4 0 0.2
v -0.4 0 -0.2
v -0.4 0.2 0.2
v -0.4 0.2 -0.2
v -0.3 0 0.3
v -0.3 0 0.2
v -0.3 0 -0.2
v -0.3 0 -0.3
v -0.3 0.2 0.3
v -0.3 0.2 0.2
v -0.3 0.2 -0.2
v -0.3 0.2 -0.3
v -0.3 0.3 0.2
v -0.3 0.3 -0.2
v -0.2 0 0.4
v -0.2 0 0.3
v -0.2 0 -0.3
v -0.2 0 -0.4
v -0.2 0.2 0.4
v -0.2 0.2 0.3
v -0.2 0.2 0.2
v -0.2 0.2 -0.3
v -0.2 0.2 -0.4
v -0.2 0.3 0.3
v -0.2 0.3 0.2
v -0.1 0.2 0.2
v -0.1 0.2 -0.1
v -0.1 0.3 0.2
v -0.1 0.3 -0.1
v 0.1 0.2 0.3
v 0.1 0.2 0.2
v 0.1 0.3 0.3
v 0.1 0.3 0.2
v 0.2 0.2 0.2
v 0.2 0.2 -0.2
v 0.2 0.3 0.2
v 0.2 0.3 -0.2
v -0.2 0.2 0.2
v -0.2 0.2 -0.2
v -0.2 0.3 0.2
v -0.2 0.3 -0.2
v -0.1 0.2 0.3
v -0.1 0.2 0.2
v -0.1 0.3 0.3
v -0.1 0.3 0.2
v 0 0.2 0.1
v 0 0.2 -0.1
v 0 0.3 0.1
v 0 0.3 -0.1
v 0.1 0.2 0.2
v 0.1 0.2 0.1
v 0.1 0.3 0.2
v 0.1 0.3 0.1
v 0.2 0 0.4
v 0.2 0 0.3
v 0.2 0 -0.3
v 0.2 0 -0.4
v 0.2 0.2 0.4
v 0.2 0.2 0.3
v 0.2 0.2 0.2
v 0.2 0.2 -0.3
v 0.2 0.2 -0.4
v 0.2 0.3 0.3
v 0.2 0.3 0.2
v 0.3 0 0.3
v 0.3 0 0.2
v 0.3 0 -0.2
v 0.3 0 -0.3
v 0.3 0.2 0.3
v 0.3 0.2 0.2
v 0.3 0.2 -0.2
v 0.3 0.2 -0.3
v 0.3 0.3 0.2
v 0.3 0.3 -0.2
v 0.4 0 0.2
v 0.4 0 -0.2
v 0.4 0.2 0.2
v 0.4 0.2 -0.2
v -0.2 0 0.4
v -0.2 0.2 0.4
v 0.2 0 0.4
v 0.2 0.2 0.4
v -0.3 0 0.3
v -0.3 0.2 0.3
v -0.2 0 0.3
v -0.2 0.2 0.3
v -0.2 0.3 0.3
v -0.1 0.2 0.3
v -0.1 0.3 0.3
v 0.1 0.2 0.3
v 0.1 0.3 0.3
v 0.2 0 0.3
v 0.2 0.2 0.3
v 0.2 0.3 0.3
v 0.3 0 0.3
v 0.3 0.2 0.3
v -0.4 0 0.2
v -0.4 0.2 0.2
v -0.3 0 0.2
v -0.3 0.2 0.2
v -0.3 0.3 0.2
v -0.2 0.2 0.2
v -0.2 0.3 0.2
v -0.1 0.2 0.2
v -0.1 0.3 0.2
v 0.1 0.2 0.2
v 0.1 0.3 0.2
v 0.2 0.2 0.2
v 0.2 0.3 0.2
v 0.3 0 0.2
v 0.3 0.2 0.2
v 0.3 0.3 0.2
v 0.4 0 0.2
v 0.4 0.2 0.2
v -0.2 0.2 0.2
v -0.2 0.3 0.2
v -0.1 0.2 0.2
v -0.1 0.3 0.2
v 0.1 0.2 0.2
v 0.1 0.3 0.2
v 0.2 0.2 0.2
v 0.2 0.3 0.2
v 0 0.2 0.1
v 0 0.3 0.1
v 0.1 0.2 0.1
v 0.1 0.3 0.1
v -0.1 0.2 -0.1
v -0.1 0.3 -0.1
v 0 0.2 -0.1
v 0 0.3 -0.1
v -0.4 0 -0.2
v -0.4 0.2 -0.2
v -0.3 0 -0.2
v -0.3 0.2 -0.2
v -0.3 0.3 -0.2
v -0.2 0.2 -0.2
v -0.2 0.3 -0.2
v 0.2 0.2 -0.2
v 0.2 0.3 -0.2
v 0.3 0 -0.2
v 0.3 0.2 -0.2
v 0.3 0.3 -0.2
v 0.4 0 -0.2
v 0.4 0.2 -0.2
v -0.3 0 -0.3
v -0.3 0.2 -0.3
v -0.2 0 -0.3
v -0.2 0.2 -0.3
v 0.2 0 -0.3
v 0.2 0.2 -0.3
v 0.3 0 -0.3
v 0.3 0.2 -0.3
v -0.2 0 -0.4
v -0.2 0.2 -0.4
v 0.2 0 -0.4
v 0.2 0.2 -0.4
v -0.2 0 0.4
v 0.2 0 0.4
v -0.3 0 0.3
v -0.2 0 0.3
v 0.2 0 0.3
v 0.3 0 0.3
v -0.4 0 0.2
v -0.3 0 0.2
v 0.3 0 0.2
v 0.4 0 0.2
v -0.4 0 -0.2
v -0.3 0 -0.2
v 0.3 0 -0.2
v 0.4 0 -0.2
v -0.3 0 -0.3
v -0.2 0 -0.3
v 0.2 0 -0.3
v 0.3 0 -0.3
v -0.2 0 -0.4
v 0.2 0 -0.4
v -0.2 0.2 0.4
v 0.2 0.2 0.4
v -0.3 0.2 0.3
v -0.2 0.2 0.3
v -0.1 0.2 0.3
v 0.1 0.2 0.3
v 0.2 0.2 0.3
v 0.3 0.2 0.3
v -0.4 0.2 0.2
v -0.3 0.2 0.2
v -0.2 0.2 0.2
v -0.1 0.2 0.2
v 0.1 0.2 0.2
v 0.2 0.2 0.2
v 0.3 0.2 0.2
v 0.4 0.2 0.2
v 0 0.2 0.1
v 0.1 0.2 0.1
v -0.1 0.2 -0.1
v 0 0.2 -0.1
v -0.4 0.2 -0.2
v -0.3 0.2 -0.2
v -0.2 0.2 -0.2
v 0.2 0.2 -0.2
v 0.3 0.2 -0.2
v 0.4 0.2 -0.2
v -0.3 0.2 -0.3
v -0.2 0.2 -0.3
v 0.2 0.2 -0.3
v 0.3 0.2 -0.3
v -0.2 0.2 -0.4
v 0.2 0.2 -0.4
v -0.2 0.3 0.3
v -0.1 0.3 0.3
v 0.1 0.3 0.3
v 0.2 0.3 0.3
v -0.3 0.3 0.2
v -0.2 0.3 0.2
v -0.1 0.3 0.2
v 0.1 0.3 0.2
v 0.2 0.3 0.2
v 0.3 0.3 0.2
v 0 0.3 0.1
v 0.1 0.3 0.1
v -0.1 0.3 -0.1
v 0 0.3 -0.1
v -0.3 0.3 -0.2
v -0.2 0.3 -0.2
v 0.2 0.3 -0.2
v 0.3 0.3 -0.2

# faces
f 3/1/1 2/1/1 1/1/1
f 4/1/1 2/1/1 3/1/1
f 9/1/1 6/1/1 5/1/1
f 10/1/1 6/1/1 9/1/1
f 11/1/1 8/1/1 7/1/1
f 12/1/1 8/1/1 11/1/1
f 13/2/1 11/2/1 10/2/1
f 14/2/1 11/2/1 13/2/1
f 19/1/1 16/1/1 15/1/1
f 20/1/1 16/1/1 19/1/1
f 22/1/1 18/1/1 17/1/1
f 23/1/1 18/1/1 22/1/1
f 24/2/1 21/2/1 20/2/1
f 25/2/1 21/2/1 24/2/1
f 28/2/1 27/2/1 26/2/1
f 29/2/1 27/2/1 28/2/1
f 32/2/1 31/2/1 30/2/1
f 33/2/1 31/2/1 32/2/1
f 36/2/1 35/2/1 34/2/1
f 37/2/1 35/2/1 36/2/1
f 38/2/2 39/2/2 40/2/2
f 40/2/2 39/2/2 41/2/2
f 42/2/2 43/2/2 44/2/2
f 44/2/2 43/2/2 45/2/2
f 46/2/2 47/2/2 48/2/2
f 48/2/2 47/2/2 49/2/2
f 50/2/2 51/2/2 52/2/2
f 52/2/2 51/2/2 53/2/2
f 54/1/2 55/1/2 58/1/2
f 58/1/2 55/1/2 59/1/2
f 56/1/2 57/1/2 61/1/2
f 61/1/2 57/1/2 62/1/2
f 59/2/2 60/2/2 63/2/2
f 63/2/2 60/2/2 64/2/2
f 65/1/2 66/1/2 69/1/2
f 69/1/2 66/1/2 70/1/2
f 67/1/2 68/1/2 71/1/2
f 71/1/2 68/1/2 72/1/2
f 70/2/2 71/2/2 73/2/2
f 73/2/2 71/2/2 74/2/2
f 75/1/2 76/1/2 77/1/2
f 77/1/2 76/1/2 78/1/2
f 81/1/3 80/1/3 79/1/3
f 82/1/3 80/1/3 81/1/3
f 85/1/3 84/1/3 83/1/3
f 86/1/3 84/1/3 85/1/3
f 88/2/3 87/2/3 86/2/3
f 89/2/3 87/2/3 88/2/3
f 93/2/3 91/2/3 90/2/3
f 94/2/3 91/2/3 93/2/3
f 95/1/3 93/1/3 92/1/3
f 96/1/3 93/1/3 95/1/3
f 99/1/3 98/1/3 97/1/3
f 100/1/3 98/1/3 99/1/3
f 102/2/3 101/2/3 100/2/3
f 103/2/3 101/2/3 102/2/3
f 106/2/3 105/2/3 104/2/3
f 107/2/3 105/2/3 106/2/3
f 111/2/3 109/2/3 108/2/3
f 112/2/3 109/2/3 111/2/3
f 113/1/3 111/1/3 110/1/3
f 114/1/3 111/1/3 113/1/3
f 115/2/4 116/2/4 117/2/4
f 117/2/4 116/2/4 118/2/4
f 119/2/4 120/2/4 121/2/4
f 121/2/4 120/2/4 122/2/4
f 123/2/4 124/2/4 125/2/4
f 125/2/4 124/2/4 126/2/4
f 127/2/4 128/2/4 129/2/4
f 129/2/4 128/2/4 130/2/4
f 131/1/4 132/1/4 133/1/4
f 133/1/4 132/1/4 134/1/4
f 134/2/4 135/2/4 136/2/4
f 136/2/4 135/2/4 137/2/4
f 138/2/4 139/2/4 141/2/4
f 141/2/4 139/2/4 142/2/4
f 140/1/4 141/1/4 143/1/4
f 143/1/4 141/1/4 144/1/4
f 145/1/4 146/1/4 147/1/4
f 147/1/4 146/1/4 148/1/4
f 149/1/4 150/1/4 151/1/4
f 151/1/4 150/1/4 152/1/4
f 153/1/4 154/1/4 155/1/4
f 155/1/4 154/1/4 156/1/4
f 160/1/5 158/1/5 157/1/5
f 161/1/5 158/1/5 160/1/5
f 164/1/5 160/1/5 159/1/5
f 164/1/5 162/1/5 161/1/5
f 164/1/5 161/1/5 160/1/5
f 165/1/5 162/1/5 164/1/5
f 167/1/5 164/1/5 163/1/5
f 167/1/5 166/1/5 165/1/5
f 167/1/5 165/1/5 164/1/5
f 168/1/5 166/1/5 167/1/5
f 169/1/5 166/1/5 168/1/5
f 170/1/5 166/1/5 169/1/5
f 171/1/5 169/1/5 168/1/5
f 172/1/5 169/1/5 171/1/5
f 173/1/5 169/1/5 172/1/5
f 174/1/5 169/1/5 173/1/5
f 175/1/5 173/1/5 172/1/5
f 176/1/5 173/1/5 175/1/5
f 177/1/6 178/1/6 180/1/6
f 180/1/6 178/1/6 181/1/6
f 181/1/6 178/1/6 182/1/6
f 182/1/6 178/1/6 183/1/6
f 179/1/6 180/1/6 186/1/6
f 186/1/6 180/1/6 187/1/6
f 181/1/6 182/1/6 188/1/6
f 188/1/6 182/1/6 189/1/6
f 183/1/6 184/1/6 190/1/6
f 190/1/6 184/1/6 191/1/6
f 189/1/6 190/1/6 194/1/6
f 187/1/6 188/1/6 195/1/6
f 193/1/6 194/1/6 196/1/6
f 185/1/6 186/1/6 197/1/6
f 197/1/6 186/1/6 198/1/6
f 195/1/6 196/1/6 199/1/6
f 187/1/6 195/1/6 199/1/6
f 194/1/6 190/1/6 200/1/6
f 196/1/6 194/1/6 200/1/6
f 199/1/6 196/1/6 200/1/6
f 191/1/6 192/1/6 201/1/6
f 201/1/6 192/1/6 202/1/6
f 199/1/6 200/1/6 203/1/6
f 200/1/6 201/1/6 203/1/6
f 198/1/6 199/1/6 203/1/6
f 203/1/6 201/1/6 204/1/6
f 204/1/6 201/1/6 205/1/6
f 205/1/6 201/1/6 206/1/6
f 204/1/6 205/1/6 207/1/6
f 207/1/6 205/1/6 208/1/6
f 209/2/6 210/2/6 214/2/6
f 214/2/6 210/2/6 215/2/6
f 211/2/6 212/2/6 216/2/6
f 216/2/6 212/2/6 217/2/6
f 215/2/6 216/2/6 219/2/6
f 219/2/6 216/2/6 220/2/6
f 215/2/6 219/2/6 221/2/6
f 221/2/6 219/2/6 222/2/6
f 213/2/6 214/2/6 223/2/6
f 223/2/6 214/2/6 224/2/6
f 217/2/6 218/2/6 225/2/6
f 225/2/6 218/2/6 226/2/6
